<?xml version="1.0" encoding="UTF-8"?>
<svg id="HP_icon" data-name="HP icon" xmlns="http://www.w3.org/2000/svg" viewBox="0 0 56.69 56.69">
  <defs>
    <style>
      .cls-1 {
        fill: #131313;
      }
    </style>
  </defs>
  <path class="cls-1" d="M13.21,11.78c-.52-.22-1.12-.33-1.79-.33h-.4v7.69h.4c.67,0,1.27-.12,1.79-.35.52-.23.93-.64,1.22-1.21.29-.57.44-1.35.44-2.33s-.15-1.77-.44-2.32c-.29-.55-.7-.93-1.22-1.15Z"/>
  <path class="cls-1" d="M0,0v56.69h56.69V0H0ZM17.16,18.82c-.52.94-1.24,1.63-2.17,2.07-.92.45-2,.67-3.22.67h-3.76v-12.52h3.59c1.28,0,2.39.22,3.33.65.95.43,1.68,1.1,2.21,2.01.53.91.79,2.09.79,3.54s-.26,2.63-.78,3.57ZM23.26,21.57h-3.01v-12.52h3.01v12.52ZM33.69,21.34c-.69.31-1.44.46-2.26.46s-1.55-.13-2.25-.4c-.71-.27-1.33-.67-1.87-1.22s-.97-1.22-1.28-2.02c-.31-.8-.46-1.73-.46-2.78s.16-1.97.48-2.78c.32-.81.76-1.5,1.31-2.06.55-.56,1.19-.98,1.91-1.28s1.47-.44,2.27-.44,1.55.16,2.19.49c.64.32,1.18.71,1.6,1.14l-1.56,1.92c-.31-.29-.64-.53-.99-.71-.35-.18-.75-.27-1.19-.27-.54,0-1.03.15-1.48.46-.45.31-.8.75-1.07,1.33-.26.58-.4,1.27-.4,2.09s.12,1.54.36,2.13c.24.59.58,1.04,1.02,1.34s.95.46,1.53.46c.5,0,.95-.11,1.35-.34s.74-.49,1.03-.81l1.58,1.88c-.53.62-1.13,1.08-1.82,1.39ZM42.43,21.57h-3.01v-10.01h-3.38v-2.5h9.78v2.5h-3.39v10.01ZM48.18,21.26c-.34.36-.76.55-1.28.55s-.94-.18-1.28-.55c-.34-.36-.5-.8-.5-1.32s.17-.97.5-1.32c.34-.35.76-.53,1.28-.53s.94.18,1.28.53c.34.35.5.79.5,1.32s-.17.96-.5,1.32Z"/>
</svg>