<?xml version="1.0" encoding="UTF-8"?>
<svg id="Layer_1" data-name="Layer 1" xmlns="http://www.w3.org/2000/svg" viewBox="0 0 56.69 56.69">
  <defs>
    <style>
      .cls-1 {
        fill: #131313;
      }
    </style>
  </defs>
  <path id="S-icon" class="cls-1" d="M35.31,0H0v35.3s0,21.39,0,21.39h56.69V0h-21.39ZM40.23,41.21c-1.07,1.7-2.62,3.06-4.66,4.1-2.03,1.04-4.49,1.56-7.37,1.56-2.34,0-4.68-.43-7.03-1.29-2.35-.87-4.46-2.14-6.31-3.84l4.9-5.9c1.25,1.09,2.65,1.97,4.2,2.64,1.55.67,3.03,1.01,4.44,1.01,1.6,0,2.78-.28,3.53-.84.75-.56,1.13-1.32,1.13-2.28,0-.7-.21-1.27-.62-1.71-.42-.43-1-.82-1.75-1.18-.75-.35-1.64-.73-2.66-1.15l-4.56-1.92c-1.25-.51-2.43-1.2-3.53-2.06-1.1-.87-2-1.94-2.69-3.22-.69-1.28-1.03-2.78-1.03-4.51,0-2.02.55-3.84,1.65-5.47,1.11-1.63,2.63-2.93,4.58-3.89,1.95-.96,4.19-1.44,6.72-1.44,2.08,0,4.14.39,6.19,1.18,2.05.78,3.86,1.96,5.43,3.53l-4.27,5.37c-1.18-.89-2.35-1.57-3.5-2.04-1.15-.46-2.43-.7-3.84-.7-1.31,0-2.34.26-3.1.77s-1.13,1.23-1.13,2.16c0,.67.23,1.23.7,1.68.46.45,1.1.85,1.9,1.2.8.35,1.73.74,2.78,1.15l4.46,1.78c1.47.58,2.73,1.31,3.79,2.21s1.86,1.96,2.42,3.19c.56,1.23.84,2.7.84,4.39,0,1.98-.54,3.82-1.61,5.52Z"/>
</svg>