<?xml version="1.0" encoding="UTF-8"?>
<svg id="Layer_1" data-name="Layer 1" xmlns="http://www.w3.org/2000/svg" viewBox="0 0 44.24 44.24">
  <defs>
    <style>
      .cls-1 {
        fill: #131313;
      }
    </style>
  </defs>
  <path id="STAIR" class="cls-1" d="M27.55,0H0s0,27.55,0,27.55v16.69s44.24,0,44.24,0v-13.78s0-2.92,0-2.92v-10.86s0-2.92,0-2.92V0s-16.69,0-16.69,0ZM41.33,41.33H2.92s0-10.86,0-10.86h10.86s27.55,0,27.55,0v10.86ZM41.33,27.55h-24.64s0-10.86,0-10.86h10.86s13.77,0,13.77,0v10.86ZM30.47,13.77V2.92s10.86,0,10.86,0v10.86s-10.86,0-10.86,0Z"/>
</svg>