<?xml version="1.0" encoding="UTF-8"?>
<svg id="HP_icon" data-name="HP icon" xmlns="http://www.w3.org/2000/svg" viewBox="0 0 56.69 56.69">
  <defs>
    <style>
      .cls-1 {
        fill: #131313;
      }
    </style>
  </defs>
  <path class="cls-1" d="M45.35,0H11.34C5.08,0,0,5.08,0,11.34v34.02C0,51.62,5.08,56.69,11.34,56.69h34.02c6.26,0,11.34-5.08,11.34-11.34V11.34C56.69,5.08,51.62,0,45.35,0ZM43.12,46.97h-9.1l-9.2-17.95-3.65-8.15h-.25c.2,2.07.44,4.31.72,6.72.28,2.42.42,4.76.42,7.03v12.35h-8.5V9.72h9.1l9.25,17.85,3.65,8.25h.25c-.23-1.97-.49-4.19-.77-6.67-.28-2.48-.43-4.84-.43-7.08v-12.35h8.5v37.25Z"/>
</svg>