<?xml version="1.0" encoding="UTF-8"?>
<svg id="Layer_1" data-name="Layer 1" xmlns="http://www.w3.org/2000/svg" viewBox="0 0 42.52 99.63">
  <defs>
    <style>
      .cls-1 {
        fill: #f04f29;
      }

      .cls-2 {
        fill: #131313;
      }
    </style>
  </defs>
  <g id="N-stair">
    <polygon class="cls-1" points="27.88 58.51 27.88 71.75 14.64 71.75 14.64 84.99 1.4 84.99 1.4 98.23 14.64 98.23 27.88 98.23 41.12 98.23 41.12 84.99 41.12 71.75 41.12 71.75 41.12 58.51 27.88 58.51"/>
    <path class="cls-2" d="M21.26,0C9.52,0,0,9.52,0,21.26v78.37h42.52V21.26C42.52,9.52,33,0,21.26,0ZM9.72,18.41c1.08.06,2.16.09,3.24.09s2.13-.03,3.21-.09l12.03,13.83v-9.33c0-2.04-.33-3.36-2.85-3.36v-1.14c1.32.06,2.55.09,3.66.09s2.34-.03,3.66-.09v1.14c-2.52,0-2.85,1.32-2.85,3.36v16.24h-1.62l-13.96-16.03v11.07c0,2.04.33,3.36,2.85,3.36v1.14c-1.32-.06-2.55-.09-3.66-.09s-2.34.03-3.66.09v-1.14c2.52,0,2.85-1.32,2.85-3.36v-12.75c0,.3-.63-1.89-2.91-1.89v-1.14ZM39.72,96.83H2.8v-10.44h36.92v10.44ZM39.72,83.59h-23.67v-10.44h23.67v10.44ZM39.72,70.35h-10.43v-10.43h10.43v10.43Z"/>
  </g>
</svg>