<?xml version="1.0" encoding="UTF-8"?>
<svg id="Layer_1" data-name="Layer 1" xmlns="http://www.w3.org/2000/svg" viewBox="0 0 42.52 99.63">
  <defs>
    <style>
      .cls-1 {
        fill: #f04f29;
      }

      .cls-2 {
        fill: #131313;
      }
    </style>
  </defs>
  <g id="S-stair">
    <polygon class="cls-1" points="27.88 58.51 27.88 71.75 14.64 71.75 14.64 84.99 1.4 84.99 1.4 98.23 14.64 98.23 27.88 98.23 41.12 98.23 41.12 84.99 41.12 71.75 41.12 71.75 41.12 58.51 27.88 58.51"/>
    <path class="cls-2" d="M21.26,0C9.52,0,0,9.52,0,21.26v78.37h42.52V21.26C42.52,9.52,33,0,21.26,0ZM14.01,32.27h1.44c.63,2.16,1.68,5.43,5.31,5.43,2.58,0,3.69-1.68,3.69-3.24,0-1.86-.84-2.52-3.18-3.57l-1.98-.9c-3.42-1.5-4.89-3.03-4.89-6.3s2.28-5.73,6.54-5.73c1.44,0,3.3.39,4.47,1.68l.42-1.32h1.41c-.09,1.89-.03,3.72.18,5.61h-1.38c-.57-1.92-1.71-4.53-5.07-4.53-2.34,0-2.97,1.86-2.97,2.73,0,1.17.48,2.04,2.19,2.79l2.94,1.29c2.16.96,5.4,2.58,5.4,6.45,0,5.4-5.04,6.48-7.47,6.48-2.76,0-4.02-.96-5.22-2.01l-.39,1.47h-1.44c.06-1.08.09-2.22.09-3.39,0-.96-.03-1.95-.09-2.94ZM39.72,96.83H2.8v-10.44h36.92v10.44ZM39.72,83.59h-23.67v-10.44h23.67v10.44ZM39.72,70.35h-10.43v-10.43h10.43v10.43Z"/>
  </g>
</svg>