<?xml version="1.0" encoding="UTF-8"?>
<svg id="Layer_1" data-name="Layer 1" xmlns="http://www.w3.org/2000/svg" viewBox="0 0 240.94 57.43">
  <defs>
    <style>
      .cls-1 {
        fill: #131313;
      }
    </style>
  </defs>
  <g id="VOL0">
    <path class="cls-1" d="M28.29,40.55h.46L40.47.77h16.57l-18.5,55.81h-19.97L0,.77h16.57l11.72,39.78Z"/>
    <path class="cls-1" d="M84.26,57.35c-15.26,0-27.06-10.18-27.06-28.68S68.99,0,84.26,0s26.98,10.1,26.98,28.68-11.87,28.68-26.98,28.68ZM84.26,12.8c-7.71,0-11.95,5.63-11.95,15.88s4.24,15.88,11.95,15.88,11.87-5.63,11.87-15.88-4.24-15.88-11.87-15.88Z"/>
    <path class="cls-1" d="M116.83.77h14.65v43.94h22.74v11.87h-37.39V.77Z"/>
    <path class="cls-1" d="M159.58,49.95c-.08-4.09,3.31-7.4,7.48-7.4,3.93,0,7.48,3.31,7.48,7.4s-3.55,7.48-7.48,7.48c-4.16,0-7.55-3.31-7.48-7.48Z"/>
    <path class="cls-1" d="M192.23,28.68c0-18.35,9.33-28.68,24.36-28.68s24.36,10.41,24.36,28.68-9.33,28.68-24.36,28.68-24.36-10.41-24.36-28.68ZM225.76,28.68c0-11.56-3.78-16.88-9.17-16.88s-9.1,5.32-9.17,16.88c0,11.87,3.78,16.81,9.17,16.88,5.4-.08,9.17-5.01,9.17-16.88Z"/>
  </g>
</svg>