<?xml version="1.0" encoding="UTF-8"?>
<svg id="Layer_1" data-name="Layer 1" xmlns="http://www.w3.org/2000/svg" viewBox="0 0 56.69 56.69">
  <defs>
    <style>
      .cls-1 {
        fill: #131313;
      }
    </style>
  </defs>
  <g id="HOME-icon">
    <path class="cls-1" d="M41.03,12.99c-.66-.45-1.45-.67-2.36-.67s-1.7.22-2.36.67c-.66.45-1.17,1.1-1.52,1.96-.35.86-.53,1.88-.53,3.08s.18,2.24.53,3.12c.35.88.86,1.56,1.52,2.04.66.48,1.45.72,2.36.72s1.7-.24,2.36-.72c.66-.48,1.17-1.16,1.54-2.04.36-.88.54-1.92.54-3.12s-.18-2.22-.54-3.08c-.36-.86-.88-1.51-1.54-1.96Z"/>
    <path class="cls-1" d="M56.69,0h-21.39S0,0,0,0v56.69h56.69V0ZM8.5,8.83h5v7.08h6.84v-7.08h4.97v18.58h-4.97v-7.63h-6.84v7.63h-5V8.83ZM28.21,48.19h-4.55v-6.36c0-.61.04-1.3.11-2.07.07-.76.16-1.53.27-2.31.1-.77.2-1.46.29-2.06h-.14l-1.73,4.44-2.79,6.78h-2.74l-2.82-6.78-1.67-4.44h-.11c.09.6.19,1.28.28,2.06.09.77.18,1.54.25,2.31.07.77.11,1.45.11,2.07v6.36h-4.47v-18.58h5.39l3.29,8.03c.2.53.4,1.08.59,1.66s.37,1.14.56,1.71h.14c.2-.57.4-1.13.59-1.71.19-.57.37-1.13.56-1.66l3.18-8.03h5.41v18.58ZM46.46,48.19h-13.48v-18.58h13.17v3.72h-8.18v3.44h6.95v3.74h-6.95v3.94h8.48v3.74ZM46.99,23.26c-.8,1.45-1.91,2.57-3.33,3.34-1.43.77-3.09,1.16-4.98,1.16s-3.53-.39-4.97-1.16c-1.43-.77-2.55-1.89-3.35-3.34-.8-1.46-1.2-3.2-1.2-5.22s.4-3.75,1.2-5.17c.8-1.42,1.92-2.5,3.35-3.24,1.43-.74,3.09-1.11,4.97-1.11s3.56.37,4.98,1.12c1.42.75,2.53,1.83,3.33,3.24.8,1.41,1.2,3.13,1.2,5.16s-.4,3.77-1.2,5.22Z"/>
  </g>
</svg>