<?xml version="1.0" encoding="UTF-8"?>
<svg id="Layer_1" data-name="Layer 1" xmlns="http://www.w3.org/2000/svg" viewBox="0 0 151.17 99.21">
  <defs>
    <style>
      .cls-1 {
        fill: #131313;
      }
    </style>
  </defs>
  <g id="TH-INFO">
    <g>
      <path class="cls-1" d="M0,16.75h3.42v13.67h7.11v2.83H0v-16.5Z"/>
      <path class="cls-1" d="M13.75,23.25h-2.42l1.14-6.49h3.24l-1.96,6.49Z"/>
      <path class="cls-1" d="M21.41,33.25h-3.42v-16.5h3.42v16.5Z"/>
      <path class="cls-1" d="M28.42,16.75l4.58,11.19h.18l4.58-11.19h4.24v16.5h-3.33v-10.8h-.14l-4.31,10.73h-2.28l-4.31-10.78h-.14v10.85h-3.33v-16.5h4.24Z"/>
      <path class="cls-1" d="M44.78,16.75h6.47c3.76,0,5.9,2.3,5.9,5.56s-2.19,5.56-5.99,5.56h-2.96v5.38h-3.42v-16.5ZM50.62,25.11c2.03,0,3.01-1.14,3.01-2.8s-.98-2.76-3.01-2.76h-2.42v5.56h2.42Z"/>
      <path class="cls-1" d="M66.73,33.48c-4.4,0-7.72-3.12-7.72-8.48s3.33-8.48,7.72-8.48,7.7,3.1,7.7,8.48-3.35,8.48-7.7,8.48ZM66.73,19.55c-2.55,0-4.24,1.91-4.24,5.45s1.69,5.45,4.24,5.45,4.22-1.91,4.22-5.45-1.66-5.45-4.22-5.45Z"/>
      <path class="cls-1" d="M83,19.4c-1.73,0-2.69.8-2.71,1.89-.02,1.18,1.23,1.73,2.64,2.05l1.48.36c2.83.64,4.94,2.07,4.94,4.83,0,3.03-2.37,4.94-6.38,4.94s-6.54-1.85-6.63-5.38h3.33c.11,1.66,1.44,2.51,3.26,2.51s2.96-.84,2.96-2.07c0-1.12-1.03-1.64-2.83-2.1l-1.8-.43c-2.78-.68-4.49-2.07-4.49-4.49,0-3.01,2.64-4.99,6.24-4.99s6.06,2.03,6.11,4.94h-3.28c-.14-1.3-1.18-2.07-2.85-2.07Z"/>
      <path class="cls-1" d="M97.69,19.4c-1.73,0-2.69.8-2.71,1.89-.02,1.18,1.23,1.73,2.64,2.05l1.48.36c2.83.64,4.94,2.07,4.94,4.83,0,3.03-2.37,4.94-6.38,4.94s-6.54-1.85-6.63-5.38h3.33c.11,1.66,1.44,2.51,3.26,2.51s2.96-.84,2.96-2.07c0-1.12-1.03-1.64-2.83-2.1l-1.8-.43c-2.78-.68-4.49-2.07-4.49-4.49,0-3.01,2.64-4.99,6.24-4.99s6.06,2.03,6.11,4.94h-3.28c-.14-1.3-1.18-2.07-2.85-2.07Z"/>
      <path class="cls-1" d="M109.7,33.25h-3.42v-16.5h3.42v16.5Z"/>
      <path class="cls-1" d="M112.48,16.75h6.56c3.65,0,5.47,1.75,5.47,4.24,0,1.94-1.25,3.14-2.96,3.53v.16c1.87.09,3.62,1.57,3.62,4.01,0,2.62-1.96,4.56-5.7,4.56h-7v-16.5ZM121.05,21.54c0-1.18-.87-2.01-2.44-2.01h-2.71v4.12h2.64c1.44,0,2.51-.8,2.51-2.12ZM121.62,28.37c0-1.39-1.05-2.37-2.73-2.37h-2.98v4.42h2.89c1.98,0,2.83-.82,2.83-2.05Z"/>
      <path class="cls-1" d="M127.34,16.75h3.42v13.67h7.11v2.83h-10.53v-16.5Z"/>
      <path class="cls-1" d="M140.07,16.75h11.07v2.83h-7.66v4.01h7.09v2.83h-7.09v4.01h7.68v2.83h-11.1v-16.5Z"/>
    </g>
    <g>
      <path class="cls-1" d="M0,64.09v-6.45h1.02v5.58h2.73v.87H0Z"/>
      <path class="cls-1" d="M4.05,60.09l-.26-.45c.26-.16.46-.34.59-.53s.2-.43.2-.72l-.1-.71.44.55c-.07.06-.14.1-.21.14s-.14.05-.22.05c-.16,0-.3-.05-.42-.15-.12-.1-.18-.24-.18-.42,0-.19.06-.34.17-.45.11-.11.26-.17.43-.17.23,0,.4.09.53.26.12.17.18.42.18.74,0,.41-.1.78-.29,1.09s-.48.57-.87.77Z"/>
      <path class="cls-1" d="M6.61,64.09v-6.45h1.02v6.45h-1.02Z"/>
      <path class="cls-1" d="M9.22,64.09v-4.82h.82l.09.68h.02c.21-.22.44-.41.68-.56s.51-.23.82-.23c.36,0,.64.08.85.23.21.15.37.37.47.65.24-.26.49-.47.74-.63.25-.17.53-.25.83-.25.5,0,.87.16,1.12.49s.36.8.36,1.41v3.03h-1.01v-2.91c0-.41-.07-.71-.19-.89s-.33-.27-.6-.27c-.16,0-.33.05-.51.16-.18.1-.37.27-.57.49v3.41h-1.01v-2.91c0-.41-.06-.71-.19-.89s-.33-.27-.61-.27c-.16,0-.33.05-.51.16-.18.1-.37.27-.57.49v3.41h-1.01Z"/>
      <path class="cls-1" d="M17.47,66.04v-6.77h.82l.09.53h.02c.22-.18.45-.33.7-.45s.51-.19.79-.19c.4,0,.75.1,1.03.31.29.2.5.49.65.85.15.36.22.79.22,1.29,0,.55-.1,1.02-.29,1.41-.2.39-.45.69-.77.89s-.65.31-1.02.31c-.21,0-.42-.05-.64-.14-.22-.1-.42-.23-.62-.41l.03.82v1.56h-1.01ZM19.52,63.36c.23,0,.44-.07.63-.2.18-.13.33-.33.44-.59.11-.26.16-.58.16-.95,0-.34-.04-.63-.12-.87-.08-.24-.2-.43-.36-.56-.16-.13-.38-.2-.65-.2-.19,0-.37.05-.56.14s-.38.24-.58.44v2.35c.19.16.37.27.55.33s.34.1.49.1Z"/>
      <path class="cls-1" d="M24.92,64.21c-.4,0-.77-.1-1.12-.3s-.63-.49-.84-.87c-.21-.38-.32-.83-.32-1.36s.11-.99.32-1.37c.21-.38.49-.66.84-.86.35-.2.72-.3,1.12-.3.29,0,.58.06.85.17.27.11.52.28.73.49.21.22.38.48.5.79.12.31.19.67.19,1.07,0,.53-.11.98-.32,1.36-.21.38-.49.66-.83.87-.34.2-.71.3-1.11.3ZM24.92,63.37c.25,0,.47-.07.65-.21.18-.14.32-.34.42-.59s.15-.55.15-.89-.05-.63-.15-.89c-.1-.25-.24-.45-.42-.6s-.4-.21-.65-.21-.48.07-.66.21c-.18.14-.32.34-.42.6-.1.25-.15.55-.15.89s.05.63.15.89c.1.25.24.45.42.59.19.14.4.21.66.21Z"/>
      <path class="cls-1" d="M29.61,64.21c-.33,0-.65-.06-.98-.19s-.6-.29-.84-.48l.48-.66c.21.17.42.3.64.41.22.1.46.15.71.15.29,0,.5-.06.64-.19.14-.13.21-.28.21-.46,0-.15-.05-.27-.15-.37-.1-.1-.23-.19-.4-.26-.16-.07-.33-.14-.51-.21-.22-.08-.43-.18-.64-.29-.21-.11-.38-.26-.51-.44s-.2-.4-.2-.67.07-.52.21-.73.33-.38.59-.5c.26-.12.56-.18.92-.18.32,0,.61.06.88.17.27.11.49.24.68.4l-.46.62c-.17-.12-.34-.22-.52-.3-.18-.08-.36-.12-.55-.12-.27,0-.47.06-.59.17-.13.11-.19.25-.19.42,0,.13.05.25.14.33.09.09.22.16.37.23.15.06.32.13.49.2.17.06.34.13.5.21.17.08.32.17.45.28.13.11.24.24.33.39.08.16.13.35.13.57,0,.27-.07.52-.21.74-.14.23-.34.41-.61.54-.27.13-.6.2-1.01.2Z"/>
      <path class="cls-1" d="M33.81,64.21c-.33,0-.65-.06-.98-.19s-.6-.29-.84-.48l.48-.66c.21.17.42.3.64.41.22.1.46.15.71.15.29,0,.5-.06.64-.19.14-.13.21-.28.21-.46,0-.15-.05-.27-.15-.37-.1-.1-.23-.19-.4-.26-.16-.07-.33-.14-.51-.21-.22-.08-.43-.18-.64-.29-.21-.11-.38-.26-.51-.44s-.2-.4-.2-.67.07-.52.21-.73.33-.38.59-.5c.26-.12.56-.18.92-.18.32,0,.61.06.88.17.27.11.49.24.68.4l-.46.62c-.17-.12-.34-.22-.52-.3-.18-.08-.36-.12-.55-.12-.27,0-.47.06-.59.17-.13.11-.19.25-.19.42,0,.13.05.25.14.33.09.09.22.16.37.23.15.06.32.13.49.2.17.06.34.13.5.21.17.08.32.17.45.28.13.11.24.24.33.39.08.16.13.35.13.57,0,.27-.07.52-.21.74-.14.23-.34.41-.61.54-.27.13-.6.2-1.01.2Z"/>
      <path class="cls-1" d="M37.21,58.38c-.19,0-.35-.06-.46-.17-.11-.11-.17-.26-.17-.45,0-.18.06-.32.17-.43.11-.11.27-.17.46-.17.18,0,.33.06.45.17.12.11.18.25.18.43,0,.19-.06.34-.18.45-.12.11-.26.17-.45.17ZM36.7,64.09v-4.82h1.01v4.82h-1.01Z"/>
      <path class="cls-1" d="M41.46,64.21c-.22,0-.44-.06-.67-.17-.23-.11-.45-.26-.65-.45h-.04l-.09.5h-.8v-6.97h1.01v1.85l-.03.82c.21-.19.44-.34.69-.45.25-.12.5-.17.75-.17.41,0,.75.1,1.04.3.28.2.5.48.65.85.15.37.22.8.22,1.29,0,.55-.1,1.02-.29,1.41-.2.39-.45.69-.77.89s-.65.31-1.02.31ZM41.27,63.36c.23,0,.44-.07.63-.2.18-.13.33-.33.44-.59.11-.26.16-.58.16-.95,0-.34-.04-.63-.12-.87-.08-.24-.2-.43-.36-.56-.16-.13-.38-.2-.65-.2-.19,0-.37.05-.56.14-.19.1-.38.24-.58.44v2.35c.18.16.36.27.55.33s.35.1.49.1Z"/>
      <path class="cls-1" d="M45.72,64.21c-.24,0-.44-.05-.59-.15-.15-.1-.25-.25-.31-.44-.06-.19-.1-.41-.1-.67v-5.84h1.01v5.89c0,.13.02.23.07.28s.1.08.16.08c.02,0,.05,0,.07,0s.06,0,.11-.01l.12.76c-.06.02-.13.04-.22.07-.09.02-.2.03-.32.03Z"/>
      <path class="cls-1" d="M49.35,64.21c-.44,0-.83-.1-1.19-.3s-.64-.49-.85-.87c-.21-.38-.31-.83-.31-1.36,0-.39.06-.74.18-1.05s.29-.58.5-.8c.21-.22.45-.39.71-.5.26-.12.53-.17.8-.17.43,0,.78.09,1.08.28s.51.45.67.8c.15.34.23.74.23,1.19,0,.1,0,.19-.01.28s-.02.17-.04.23h-3.12c.03.3.11.56.24.78s.3.39.52.51c.21.12.46.18.73.18.22,0,.42-.03.6-.1.19-.06.37-.15.54-.26l.35.64c-.22.15-.47.27-.74.37-.27.1-.56.15-.88.15ZM47.97,61.25h2.31c0-.41-.09-.73-.27-.95-.19-.23-.45-.34-.8-.34-.2,0-.38.05-.56.15-.18.1-.32.24-.44.44s-.2.43-.23.71Z"/>
    </g>
    <path class="cls-1" d="M.67,81.71c-.19,0-.34-.07-.48-.21-.13-.14-.2-.31-.2-.51s.07-.38.2-.51c.13-.13.29-.2.48-.2s.35.07.49.2c.13.13.2.3.2.51s-.07.37-.2.51c-.13.14-.29.21-.49.21Z"/>
    <path class="cls-1" d="M.67,81.71c-.19,0-.34-.07-.48-.21-.13-.14-.2-.31-.2-.51s.07-.38.2-.51c.13-.13.29-.2.48-.2s.35.07.49.2c.13.13.2.3.2.51s-.07.37-.2.51c-.13.14-.29.21-.49.21Z"/>
    <g>
      <path class="cls-1" d="M.05,81.59v-.59c.6-.59,1.12-1.11,1.55-1.57.43-.46.76-.87.98-1.24s.34-.72.34-1.05c0-.23-.04-.43-.12-.6-.08-.17-.2-.3-.36-.39-.16-.09-.36-.14-.61-.14s-.48.07-.69.22c-.21.14-.4.31-.58.5l-.57-.56c.27-.3.57-.54.87-.71s.67-.25,1.1-.25c.39,0,.73.08,1.02.24.29.16.52.38.68.66.16.28.24.61.24.99s-.11.76-.32,1.15c-.21.39-.5.8-.86,1.22s-.77.86-1.22,1.33c.17-.02.35-.03.54-.05s.36-.02.52-.02h1.64v.87H.05Z"/>
      <path class="cls-1" d="M7.16,81.71c-.43,0-.8-.13-1.12-.38s-.55-.62-.72-1.11c-.17-.49-.25-1.08-.25-1.79s.08-1.3.25-1.78.41-.84.72-1.09.68-.37,1.12-.37.79.12,1.1.37.55.61.72,1.09.25,1.07.25,1.78-.08,1.3-.25,1.79c-.17.49-.41.86-.72,1.11s-.68.38-1.1.38ZM7.16,80.91c.22,0,.41-.08.58-.24.17-.16.3-.43.39-.79.09-.36.14-.84.14-1.44s-.05-1.08-.14-1.43c-.09-.35-.23-.61-.39-.76-.17-.16-.36-.24-.58-.24s-.41.08-.58.24c-.17.16-.3.41-.4.76-.1.35-.14.83-.14,1.43s.05,1.08.14,1.44c.1.36.23.62.4.79.17.16.36.24.58.24Z"/>
      <path class="cls-1" d="M10.03,81.59v-.59c.6-.59,1.12-1.11,1.55-1.57.43-.46.76-.87.98-1.24s.34-.72.34-1.05c0-.23-.04-.43-.12-.6-.08-.17-.2-.3-.36-.39-.16-.09-.36-.14-.61-.14s-.48.07-.69.22c-.21.14-.4.31-.58.5l-.57-.56c.27-.3.57-.54.87-.71s.67-.25,1.1-.25c.39,0,.73.08,1.02.24.29.16.52.38.68.66.16.28.24.61.24.99s-.11.76-.32,1.15c-.21.39-.5.8-.86,1.22s-.77.86-1.22,1.33c.17-.02.35-.03.54-.05s.36-.02.52-.02h1.64v.87h-4.17Z"/>
      <path class="cls-1" d="M17.32,81.71c-.31,0-.6-.06-.87-.19-.27-.13-.51-.31-.71-.56-.2-.25-.36-.57-.48-.95s-.18-.83-.18-1.35c0-.62.07-1.14.2-1.58s.31-.79.54-1.07c.23-.28.49-.48.78-.61.29-.13.6-.19.92-.19.36,0,.68.07.94.2s.49.3.67.49l-.55.61c-.12-.14-.26-.25-.45-.34-.18-.09-.37-.13-.57-.13-.28,0-.54.08-.77.24-.23.16-.42.44-.56.82-.14.38-.21.9-.21,1.56,0,.52.05.95.16,1.28.11.33.25.59.45.75.19.16.42.24.67.24.19,0,.36-.05.51-.15.15-.1.27-.25.36-.44.09-.19.14-.41.14-.68s-.04-.47-.13-.65c-.08-.18-.21-.31-.36-.41-.16-.09-.35-.14-.58-.14-.19,0-.39.06-.61.18s-.42.33-.62.64l-.04-.73c.13-.17.27-.31.44-.44.16-.12.33-.22.51-.28s.34-.1.5-.1c.36,0,.68.07.95.22.27.14.49.36.64.64.15.28.23.64.23,1.08s-.09.77-.27,1.08c-.18.3-.41.54-.7.71s-.61.26-.96.26Z"/>
      <path class="cls-1" d="M24.73,81.71c-.43,0-.8-.13-1.12-.38s-.55-.62-.72-1.11c-.17-.49-.25-1.08-.25-1.79s.08-1.3.25-1.78.41-.84.72-1.09.68-.37,1.12-.37.79.12,1.1.37.55.61.72,1.09.25,1.07.25,1.78-.08,1.3-.25,1.79c-.17.49-.41.86-.72,1.11s-.68.38-1.1.38ZM24.73,80.91c.22,0,.41-.08.58-.24.17-.16.3-.43.39-.79.09-.36.14-.84.14-1.44s-.05-1.08-.14-1.43c-.09-.35-.23-.61-.39-.76-.17-.16-.36-.24-.58-.24s-.41.08-.58.24c-.17.16-.3.41-.4.76-.1.35-.14.83-.14,1.43s.05,1.08.14,1.44c.1.36.23.62.4.79.17.16.36.24.58.24Z"/>
      <path class="cls-1" d="M29.56,81.71c-.33,0-.63-.04-.89-.12s-.49-.19-.69-.32c-.2-.14-.37-.27-.53-.42l.48-.66c.12.12.26.23.4.34.15.1.31.19.5.25s.39.1.62.1c.24,0,.45-.05.65-.15.19-.1.34-.25.46-.44.11-.19.17-.42.17-.68,0-.4-.11-.7-.34-.93s-.52-.33-.89-.33c-.2,0-.38.03-.52.09-.15.06-.31.15-.5.27l-.5-.31.19-3.06h3.26v.86h-2.39l-.15,1.64c.14-.07.28-.12.42-.16.14-.04.29-.06.46-.06.36,0,.69.07.99.21s.53.35.71.64c.18.29.26.66.26,1.11s-.1.84-.31,1.16c-.2.32-.47.57-.8.73s-.68.25-1.06.25Z"/>
      <path class="cls-1" d="M37.31,81.71c-.43,0-.8-.13-1.12-.38s-.55-.62-.72-1.11c-.17-.49-.25-1.08-.25-1.79s.08-1.3.25-1.78.41-.84.72-1.09.68-.37,1.12-.37.79.12,1.1.37.55.61.72,1.09.25,1.07.25,1.78-.08,1.3-.25,1.79c-.17.49-.41.86-.72,1.11s-.68.38-1.1.38ZM37.31,80.91c.22,0,.41-.08.58-.24.17-.16.3-.43.39-.79.09-.36.14-.84.14-1.44s-.05-1.08-.14-1.43c-.09-.35-.23-.61-.39-.76-.17-.16-.36-.24-.58-.24s-.41.08-.58.24c-.17.16-.3.41-.4.76-.1.35-.14.83-.14,1.43s.05,1.08.14,1.44c.1.36.23.62.4.79.17.16.36.24.58.24Z"/>
      <path class="cls-1" d="M40.54,81.59v-.83h1.42v-4.31h-1.15v-.64c.3-.06.57-.13.79-.21.22-.08.43-.17.62-.28h.76v5.43h1.25v.83h-3.68Z"/>
      <path class="cls-1" d="M47.6,81.59v-6.45h2.11c.44,0,.84.06,1.19.18s.63.31.83.59c.2.27.31.64.31,1.11s-.1.82-.31,1.11-.48.51-.83.65c-.35.14-.75.21-1.19.21h-1.09v2.6h-1.02ZM48.61,78.18h.97c.47,0,.82-.1,1.07-.29s.37-.49.37-.87-.12-.66-.37-.82c-.25-.15-.61-.23-1.07-.23h-.97v2.21ZM51.12,81.59l-1.6-2.87.75-.59,2,3.46h-1.15Z"/>
      <path class="cls-1" d="M55.13,81.71c-.44,0-.83-.1-1.19-.3s-.64-.49-.85-.87c-.21-.38-.31-.83-.31-1.36,0-.39.06-.74.18-1.05s.29-.58.5-.8c.21-.22.45-.39.71-.5.26-.12.53-.18.8-.18.43,0,.78.09,1.08.28.29.19.51.46.67.8.15.34.23.74.23,1.19,0,.1,0,.19-.01.28,0,.09-.02.17-.04.23h-3.12c.03.3.11.56.24.78.13.22.3.39.52.51.21.12.46.18.73.18.22,0,.42-.03.6-.1.19-.06.37-.15.54-.26l.35.64c-.22.15-.47.27-.74.37-.27.1-.56.15-.88.15ZM53.76,78.75h2.31c0-.41-.09-.73-.27-.95-.19-.23-.45-.34-.8-.34-.2,0-.38.05-.56.15-.18.1-.32.24-.44.44-.12.19-.2.43-.23.71Z"/>
      <path class="cls-1" d="M58.07,83.54v-6.77h.82l.09.53h.02c.22-.17.45-.33.7-.45s.51-.19.79-.19c.4,0,.75.1,1.03.31.29.2.5.49.65.85.15.36.22.79.22,1.29,0,.55-.1,1.02-.29,1.41-.2.39-.45.69-.77.89s-.65.31-1.02.31c-.21,0-.42-.05-.64-.14-.22-.1-.42-.23-.62-.41l.03.82v1.56h-1.01ZM60.12,80.86c.23,0,.44-.07.63-.2.18-.13.33-.33.44-.59.11-.26.16-.58.16-.95,0-.34-.04-.63-.12-.87-.08-.24-.2-.43-.36-.56-.16-.13-.38-.2-.65-.2-.19,0-.37.05-.56.14s-.38.24-.58.44v2.35c.19.16.37.27.55.33.18.07.34.1.49.1Z"/>
      <path class="cls-1" d="M65,81.71c-.51,0-.89-.17-1.13-.5-.24-.33-.36-.8-.36-1.41v-3.04h1.02v2.91c0,.41.06.7.19.88s.33.27.61.27c.22,0,.42-.06.6-.17s.36-.3.56-.55v-3.35h1.02v4.82h-.83l-.08-.73h-.03c-.22.25-.46.46-.7.61-.24.16-.53.24-.87.24Z"/>
      <path class="cls-1" d="M71.25,81.71c-.22,0-.44-.06-.67-.17-.23-.11-.45-.26-.65-.45h-.04l-.09.5h-.8v-6.97h1.01v1.85l-.03.82c.21-.19.44-.34.69-.45s.5-.18.75-.18c.41,0,.75.1,1.04.3.28.2.5.49.65.85.15.37.22.8.22,1.29,0,.55-.1,1.02-.29,1.41-.2.39-.45.69-.77.89s-.65.31-1.02.31ZM71.05,80.86c.23,0,.44-.07.63-.2.18-.13.33-.33.44-.59.11-.26.16-.58.16-.95,0-.34-.04-.63-.12-.87-.08-.24-.2-.43-.36-.56-.16-.13-.38-.2-.65-.2-.19,0-.37.05-.56.14-.19.1-.38.24-.58.44v2.35c.18.16.36.27.55.33.18.07.35.1.49.1Z"/>
      <path class="cls-1" d="M75.51,81.71c-.24,0-.44-.05-.59-.15-.15-.1-.25-.25-.31-.44s-.1-.41-.1-.67v-5.84h1.01v5.89c0,.13.02.23.07.28s.1.08.16.08c.02,0,.05,0,.07,0s.06,0,.11-.01l.12.76c-.06.02-.13.05-.22.07-.09.02-.2.03-.32.03Z"/>
      <path class="cls-1" d="M77.63,75.88c-.19,0-.35-.06-.46-.17s-.17-.26-.17-.45c0-.18.06-.32.17-.43s.27-.17.46-.17c.18,0,.33.06.45.17s.18.25.18.43c0,.19-.06.33-.18.45s-.26.17-.45.17ZM77.12,81.59v-4.82h1.01v4.82h-1.01Z"/>
      <path class="cls-1" d="M81.6,81.71c-.44,0-.83-.1-1.17-.3-.34-.2-.62-.49-.82-.87s-.31-.83-.31-1.36.11-.99.33-1.37c.22-.38.51-.66.88-.86.36-.2.75-.3,1.17-.3.31,0,.58.05.8.16.23.11.43.24.6.39l-.5.66c-.13-.12-.26-.21-.4-.28-.14-.07-.29-.1-.45-.1-.27,0-.51.07-.72.22-.21.14-.37.34-.49.6s-.18.55-.18.89.06.64.18.89.28.45.48.59c.2.14.44.21.7.21.21,0,.39-.04.57-.13.18-.08.33-.19.48-.31l.42.67c-.22.2-.47.35-.74.45-.27.1-.55.15-.82.15Z"/>
      <path class="cls-1" d="M88.06,81.71c-.4,0-.77-.1-1.12-.3s-.63-.49-.84-.87c-.21-.38-.32-.83-.32-1.36s.11-.99.32-1.37c.21-.38.49-.66.84-.86.35-.2.72-.3,1.12-.3.29,0,.58.06.85.17.27.11.52.28.73.49.21.22.38.48.5.79s.19.67.19,1.07c0,.53-.11.99-.32,1.36-.21.38-.49.67-.83.87-.34.2-.71.3-1.11.3ZM88.06,80.87c.25,0,.47-.07.65-.21.18-.14.32-.34.42-.59s.15-.55.15-.89-.05-.63-.15-.89-.24-.45-.42-.6-.4-.22-.65-.22-.48.07-.66.22c-.18.14-.32.34-.42.6-.1.25-.15.55-.15.89s.05.64.15.89c.1.25.24.45.42.59.19.14.4.21.66.21Z"/>
      <path class="cls-1" d="M90.96,77.58v-.75l.71-.06h1.93v.81h-2.63ZM91.62,81.59v-5.42c0-.33.05-.62.16-.88.11-.25.27-.45.49-.59s.51-.21.87-.21c.16,0,.32.02.46.04.15.03.27.07.38.11l-.2.76c-.17-.08-.34-.11-.53-.11-.21,0-.37.07-.48.21-.11.14-.16.36-.16.65v5.42h-1.01Z"/>
      <path class="cls-1" d="M96.53,81.59v-6.45h1.02v3.05h.03l2.44-3.05h1.15l-2,2.49,2.33,3.95h-1.13l-1.81-3.15-1,1.21v1.94h-1.02Z"/>
      <path class="cls-1" d="M104.06,81.71c-.4,0-.77-.1-1.12-.3s-.63-.49-.84-.87c-.21-.38-.32-.83-.32-1.36s.11-.99.32-1.37c.21-.38.49-.66.84-.86.35-.2.72-.3,1.12-.3.29,0,.58.06.85.17.27.11.52.28.73.49.21.22.38.48.5.79s.19.67.19,1.07c0,.53-.11.99-.32,1.36-.21.38-.49.67-.83.87-.34.2-.71.3-1.11.3ZM104.06,80.87c.25,0,.47-.07.65-.21.18-.14.32-.34.42-.59s.15-.55.15-.89-.05-.63-.15-.89-.24-.45-.42-.6-.4-.22-.65-.22-.48.07-.66.22c-.18.14-.32.34-.42.6-.1.25-.15.55-.15.89s.05.64.15.89c.1.25.24.45.42.59.19.14.4.21.66.21Z"/>
      <path class="cls-1" d="M107.51,81.59v-4.82h.82l.09.87h.02c.18-.31.38-.55.62-.72s.49-.26.75-.26c.12,0,.22,0,.3.03.08.02.16.04.24.07l-.18.88c-.09-.03-.17-.05-.24-.06-.07-.01-.15-.02-.25-.02-.19,0-.4.08-.61.23-.22.16-.4.42-.55.81v2.99h-1.01Z"/>
      <path class="cls-1" d="M112.97,81.71c-.44,0-.83-.1-1.19-.3s-.64-.49-.85-.87c-.21-.38-.31-.83-.31-1.36,0-.39.06-.74.18-1.05s.29-.58.5-.8c.21-.22.45-.39.71-.5.26-.12.53-.18.8-.18.43,0,.78.09,1.08.28.29.19.51.46.67.8.15.34.23.74.23,1.19,0,.1,0,.19-.01.28,0,.09-.02.17-.04.23h-3.12c.03.3.11.56.24.78.13.22.3.39.52.51.21.12.46.18.73.18.22,0,.42-.03.6-.1.19-.06.37-.15.54-.26l.35.64c-.22.15-.47.27-.74.37-.27.1-.56.15-.88.15ZM111.59,78.75h2.31c0-.41-.09-.73-.27-.95-.19-.23-.45-.34-.8-.34-.2,0-.38.05-.56.15-.18.1-.32.24-.44.44-.12.19-.2.43-.23.71Z"/>
      <path class="cls-1" d="M116.87,81.71c-.27,0-.52-.06-.73-.18-.21-.12-.38-.28-.5-.49-.12-.21-.18-.45-.18-.73,0-.52.23-.92.69-1.2.46-.28,1.19-.48,2.19-.59,0-.19-.03-.36-.09-.52s-.15-.28-.28-.38c-.13-.1-.32-.15-.56-.15s-.49.05-.73.15c-.23.1-.45.21-.67.34l-.38-.68c.17-.11.36-.21.56-.3.21-.1.42-.18.66-.24s.48-.09.73-.09c.4,0,.73.08.99.24.26.16.45.39.57.69s.19.67.19,1.1v2.9h-.82l-.08-.55h-.04c-.22.19-.45.35-.71.48-.26.13-.53.2-.82.2ZM117.17,80.91c.21,0,.41-.05.59-.15.18-.1.37-.24.57-.42v-1.17c-.47.05-.85.13-1.13.23-.28.1-.48.22-.6.36s-.18.3-.18.48c0,.24.07.41.22.52.15.11.32.16.53.16Z"/>
    </g>
    <g>
      <path class="cls-1" d="M0,99.09v-6.45h1.95c.48,0,.91.06,1.28.19s.66.33.87.61c.21.28.32.67.32,1.16s-.11.85-.31,1.15c-.21.3-.5.53-.86.67-.36.15-.78.22-1.25.22h-.97v2.44H0ZM1.02,95.83h.88c.51,0,.89-.1,1.14-.3.25-.2.38-.51.38-.93s-.13-.73-.39-.89c-.26-.16-.65-.24-1.16-.24h-.84v2.36Z"/>
      <path class="cls-1" d="M4.3,99.09l2.13-6.45h1.17l2.14,6.45h-1.08l-1.04-3.5c-.11-.35-.21-.7-.31-1.06-.1-.36-.2-.72-.3-1.08h-.04c-.09.37-.19.73-.29,1.09-.1.36-.21.71-.31,1.06l-1.04,3.5h-1.04ZM5.5,97.26v-.8h3.01v.8h-3.01Z"/>
      <path class="cls-1" d="M10.59,99.09v-6.45h2.11c.44,0,.84.06,1.19.18s.63.31.83.59c.2.27.31.64.31,1.11s-.1.82-.31,1.11-.48.51-.83.65c-.35.14-.75.21-1.19.21h-1.09v2.6h-1.02ZM11.6,95.68h.97c.47,0,.82-.1,1.07-.29s.37-.49.37-.87-.12-.66-.37-.82c-.25-.15-.61-.23-1.07-.23h-.97v2.21ZM14.1,99.09l-1.6-2.87.75-.59,2,3.46h-1.15Z"/>
      <path class="cls-1" d="M16.33,99.09v-6.45h1.02v3.05h.03l2.44-3.05h1.15l-2,2.49,2.33,3.95h-1.13l-1.81-3.15-1,1.21v1.94h-1.02Z"/>
      <path class="cls-1" d="M25.94,99.21c-.44,0-.86-.08-1.25-.25-.39-.17-.74-.4-1.04-.7l.6-.7c.23.23.5.41.8.55s.61.21.92.21c.38,0,.68-.08.89-.25.21-.17.31-.39.31-.66,0-.2-.04-.36-.13-.48-.09-.12-.21-.22-.36-.3-.15-.08-.33-.17-.53-.25l-.89-.38c-.21-.09-.42-.2-.62-.35-.2-.14-.37-.32-.5-.54-.13-.22-.2-.49-.2-.8,0-.34.09-.64.27-.91.18-.27.43-.48.75-.63.32-.16.68-.23,1.09-.23.38,0,.74.07,1.08.22.34.15.63.34.87.59l-.52.65c-.21-.18-.42-.32-.65-.42s-.49-.15-.77-.15c-.33,0-.6.07-.79.22-.19.15-.29.35-.29.6,0,.19.05.34.15.46.1.12.23.22.39.3.16.08.33.15.49.22l.88.38c.26.11.48.23.68.39.2.15.35.33.46.55.11.22.17.48.17.8,0,.34-.09.66-.27.94-.18.28-.44.51-.78.68-.34.17-.74.26-1.22.26Z"/>
      <path class="cls-1" d="M28.58,99.09l2.13-6.45h1.17l2.14,6.45h-1.08l-1.04-3.5c-.11-.35-.21-.7-.31-1.06-.1-.36-.2-.72-.3-1.08h-.04c-.09.37-.19.73-.29,1.09-.1.36-.21.71-.31,1.06l-1.04,3.5h-1.04ZM29.78,97.26v-.8h3.01v.8h-3.01Z"/>
      <path class="cls-1" d="M34.87,99.09v-6.45h1.04l2.13,3.79.67,1.36h.04c-.03-.33-.06-.68-.09-1.05-.03-.37-.05-.73-.05-1.09v-3.01h.97v6.45h-1.04l-2.14-3.8-.67-1.35h-.03c.02.33.05.68.08,1.04.03.36.04.72.04,1.08v3.03h-.96Z"/>
      <path class="cls-1" d="M41.29,99.09v-6.45h1.02v2.63h2.76v-2.63h1.02v6.45h-1.02v-2.93h-2.76v2.93h-1.02Z"/>
      <path class="cls-1" d="M46.92,99.09l2.13-6.45h1.17l2.14,6.45h-1.08l-1.04-3.5c-.11-.35-.21-.7-.31-1.06-.1-.36-.2-.72-.3-1.08h-.04c-.09.37-.19.73-.29,1.09-.1.36-.21.71-.31,1.06l-1.04,3.5h-1.04ZM48.13,97.26v-.8h3.01v.8h-3.01Z"/>
      <path class="cls-1" d="M53.21,99.09v-6.45h3.81v.86h-2.79v1.79h2.36v.86h-2.36v2.07h2.89v.87h-3.9Z"/>
    </g>
    <g>
      <path class="cls-1" d="M0,6.82V.12h2.2c.5,0,.94.07,1.33.2.39.13.71.35.94.66.23.3.35.72.35,1.25s-.12.92-.35,1.25c-.23.33-.54.57-.93.73-.39.16-.82.24-1.31.24h-.9v2.38H0ZM1.34,3.38h.8c.46,0,.8-.1,1.03-.29s.34-.48.34-.87-.12-.66-.36-.81-.59-.23-1.05-.23h-.76v2.2Z"/>
      <path class="cls-1" d="M6.03,6.82V.12h4.1v1.12h-2.77v1.55h2.34v1.12h-2.34v1.79h2.87v1.12h-4.2Z"/>
      <path class="cls-1" d="M14.25,6.94c-.59,0-1.11-.14-1.56-.42-.45-.28-.8-.68-1.05-1.21-.25-.52-.38-1.15-.38-1.88s.13-1.34.38-1.85c.25-.51.61-.9,1.05-1.18s.97-.41,1.56-.41,1.12.14,1.57.41c.45.27.79.67,1.05,1.17.25.51.38,1.13.38,1.85s-.13,1.36-.38,1.88c-.25.52-.6.93-1.05,1.21-.45.28-.97.42-1.57.42ZM14.25,5.79c.33,0,.62-.1.86-.29.24-.19.43-.47.56-.82s.2-.77.2-1.24-.07-.88-.2-1.22c-.13-.34-.32-.6-.56-.79-.24-.18-.53-.28-.86-.28s-.62.09-.86.28-.43.45-.56.79c-.13.34-.19.75-.19,1.22s.06.89.19,1.24.32.63.56.82.53.29.86.29Z"/>
      <path class="cls-1" d="M18.55,6.82V.12h2.2c.5,0,.94.07,1.33.2.39.13.71.35.94.66.23.3.35.72.35,1.25s-.12.92-.35,1.25c-.23.33-.54.57-.93.73-.39.16-.82.24-1.31.24h-.9v2.38h-1.34ZM19.89,3.38h.8c.46,0,.8-.1,1.03-.29s.34-.48.34-.87-.12-.66-.36-.81-.59-.23-1.05-.23h-.76v2.2Z"/>
      <path class="cls-1" d="M24.58,6.82V.12h1.34v5.58h2.72v1.12h-4.06Z"/>
      <path class="cls-1" d="M29.81,6.82V.12h4.1v1.12h-2.77v1.55h2.34v1.12h-2.34v1.79h2.87v1.12h-4.2Z"/>
      <path class="cls-1" d="M37.37,6.94c-.45,0-.88-.08-1.31-.25-.43-.17-.8-.41-1.13-.72l.77-.92c.23.22.51.4.81.54.3.14.6.2.89.2.35,0,.62-.07.8-.21.18-.14.27-.33.27-.56,0-.17-.04-.3-.13-.4s-.21-.19-.36-.27-.32-.16-.52-.24l-.89-.39c-.22-.09-.44-.21-.65-.37s-.38-.35-.52-.58-.2-.52-.2-.84c0-.37.1-.7.3-.99.2-.29.47-.52.82-.69.35-.17.75-.26,1.19-.26.4,0,.78.08,1.15.23.37.15.69.37.96.64l-.68.83c-.21-.17-.43-.31-.66-.41-.23-.1-.49-.14-.77-.14s-.52.06-.69.19c-.17.12-.26.3-.26.52,0,.16.05.29.14.39.1.1.22.19.38.27s.33.15.52.23l.88.35c.27.11.51.24.71.41s.36.36.47.59c.11.23.17.51.17.83,0,.36-.1.7-.29,1-.2.31-.48.55-.84.74s-.81.28-1.32.28Z"/>
    </g>
  </g>
</svg>