<?xml version="1.0" encoding="UTF-8"?>
<svg id="Layer_1" xmlns="http://www.w3.org/2000/svg" version="1.1" viewBox="0 0 56.7 56.7">
  <!-- Generator: Adobe Illustrator 30.5.1, SVG Export Plug-In . SVG Version: 2.1.4 Build 3)  -->
  <defs>
    <style>
      .st0 {
        fill: #131313;
      }

      .st1 {
        fill: #f04e29;
      }
    </style>
  </defs>
  <rect class="st1" x="7.1" y="5.4" width="42.5" height="45.9"/>
  <path id="S-icon" class="st0" d="M35.3,0H0v56.7h56.7V0h-21.4,0ZM40.2,41.2c-1.1,1.7-2.6,3.1-4.7,4.1-2,1-4.5,1.6-7.4,1.6s-4.7-.4-7-1.3c-2.4-.9-4.5-2.1-6.3-3.8l4.9-5.9c1.2,1.1,2.6,2,4.2,2.6s3,1,4.4,1,2.8-.3,3.5-.8,1.1-1.3,1.1-2.3-.2-1.3-.6-1.7c-.4-.4-1-.8-1.8-1.2-.8-.3-1.6-.7-2.7-1.2l-4.6-1.9c-1.2-.5-2.4-1.2-3.5-2.1-1.1-.9-2-1.9-2.7-3.2-.7-1.3-1-2.8-1-4.5s.5-3.8,1.6-5.5c1.1-1.6,2.6-2.9,4.6-3.9s4.2-1.4,6.7-1.4,4.1.4,6.2,1.2c2,.8,3.9,2,5.4,3.5l-4.3,5.4c-1.2-.9-2.3-1.6-3.5-2-1.1-.5-2.4-.7-3.8-.7s-2.3.3-3.1.8-1.1,1.2-1.1,2.2.2,1.2.7,1.7c.5.5,1.1.9,1.9,1.2s1.7.7,2.8,1.1l4.5,1.8c1.5.6,2.7,1.3,3.8,2.2s1.9,2,2.4,3.2c.6,1.2.8,2.7.8,4.4s-.5,3.8-1.6,5.5Z"/>
</svg>