<?xml version="1.0" encoding="UTF-8"?>
<svg id="Layer_1" xmlns="http://www.w3.org/2000/svg" version="1.1" viewBox="0 0 56.7 56.7">
  <!-- Generator: Adobe Illustrator 30.5.1, SVG Export Plug-In . SVG Version: 2.1.4 Build 3)  -->
  <defs>
    <style>
      .st0 {
        fill: #121212;
      }
    </style>
  </defs>
  <g id="HOME-icon">
    <path class="st0" d="M41,13c-.7-.4-1.5-.7-2.4-.7s-1.7.2-2.4.7-1.2,1.1-1.5,2-.5,1.9-.5,3.1.2,2.2.5,3.1.9,1.6,1.5,2c.7.5,1.5.7,2.4.7s1.7-.2,2.4-.7,1.2-1.2,1.5-2c.4-.9.5-1.9.5-3.1s-.2-2.2-.5-3.1-.9-1.5-1.5-2Z"/>
    <path class="st0" d="M56.7,0H0v56.7h56.7V0ZM8.5,8.8h5v7.1h6.8v-7.1h5v18.6h-5v-7.6h-6.8v7.6h-5s0-18.6,0-18.6ZM28.2,48.2h-4.5v-6.4c0-.6,0-1.3.1-2.1,0-.8.2-1.5.3-2.3.1-.8.2-1.5.3-2.1h-.1l-1.7,4.4-2.8,6.8h-2.7l-2.8-6.8-1.7-4.4h-.1c0,.6.2,1.3.3,2.1,0,.8.2,1.5.2,2.3s.1,1.5.1,2.1v6.4h-4.5v-18.6h5.4l3.3,8c.2.5.4,1.1.6,1.7s.4,1.1.6,1.7h.1c.2-.6.4-1.1.6-1.7.2-.6.4-1.1.6-1.7l3.2-8h5.4v18.6h-.2ZM46.5,48.2h-13.5v-18.6h13.2v3.7h-8.2v3.4h7v3.7h-7v3.9h8.5v3.7h0v.2ZM47,23.3c-.8,1.5-1.9,2.6-3.3,3.3-1.4.8-3.1,1.2-5,1.2s-3.5-.4-5-1.2c-1.4-.8-2.5-1.9-3.4-3.3-.8-1.5-1.2-3.2-1.2-5.2s.4-3.8,1.2-5.2c.8-1.4,1.9-2.5,3.4-3.2s3.1-1.1,5-1.1,3.6.4,5,1.1,2.5,1.8,3.3,3.2,1.2,3.1,1.2,5.2-.4,3.8-1.2,5.2Z"/>
  </g>
</svg>